<?xml version="1.0" encoding="utf-8"?>
<!-- Generator: Adobe Illustrator 18.0.0, SVG Export Plug-In . SVG Version: 6.00 Build 0)  -->
<!DOCTYPE svg PUBLIC "-//W3C//DTD SVG 1.1//EN" "http://www.w3.org/Graphics/SVG/1.1/DTD/svg11.dtd">
<svg version="1.1" xmlns="http://www.w3.org/2000/svg" xmlns:xlink="http://www.w3.org/1999/xlink" x="0px" y="0px"
	 viewBox="0 0 1023.3 1023.3" enable-background="new 0 0 1023.3 1023.3" xml:space="preserve">
<g id="Layer_1">
	<path fill="#FFFFFF" d="M308.4,188.3c16.4,0,23.4,7,23.4,23.4c0,16.4-7,23.4-23.4,23.4c-16.4,0-23.4-7-23.4-23.4
		C285,195.2,292,188.3,308.4,188.3z M226.5,188.3c16.4,0,23.4,7,23.4,23.4c0,16.4-7,23.4-23.4,23.4c-16.4,0-23.4-7-23.4-23.4
		C203.2,195.2,210.2,188.3,226.5,188.3z M144.7,188.3c16.4,0,23.4,7,23.4,23.4c0,16.4-7,23.4-23.4,23.4c-16.4,0-23.4-7-23.4-23.4
		C121.3,195.2,128.3,188.3,144.7,188.3z M928.1,293.5H86.2v537.8c0,12.9,10.5,23.4,23.4,23.4h795.1c12.9,0,23.4-10.5,23.4-23.4
		L928.1,293.5L928.1,293.5z M86.2,270.1h841.9v-93.6c0-12.9-10.5-23.4-23.4-23.4H109.6c-12.9,0-23.4,10.5-23.4,23.4V270.1z
		 M109.6,878.1c-25.7,0-46.8-21.1-46.8-46.8V176.5c0-25.7,21.1-46.8,46.8-46.8h795.1c25.7,0,46.8,21.1,46.8,46.8v654.8
		c0,25.7-21,46.8-46.8,46.8H109.6z"/>
	<rect x="296.6" y="458.6" fill="#FFFFFF" width="88.6" height="94.6"/>
	<rect x="410.2" y="459.2" fill="#FFFFFF" width="286" height="5.9"/>
	<rect x="410.2" y="488.3" fill="#FFFFFF" width="286" height="5.9"/>
	<rect x="410.2" y="517.6" fill="#FFFFFF" width="286" height="5.9"/>
	<rect x="410.2" y="546.8" fill="#FFFFFF" width="286" height="5.9"/>
	<rect x="296.6" y="590.7" fill="#FFFFFF" width="88.6" height="94.6"/>
	<rect x="410.2" y="591.3" fill="#FFFFFF" width="286" height="5.9"/>
	<rect x="410.2" y="620.5" fill="#FFFFFF" width="286" height="5.9"/>
	<rect x="410.2" y="649.7" fill="#FFFFFF" width="286" height="5.9"/>
	<rect x="410.2" y="678.9" fill="#FFFFFF" width="286" height="5.9"/>
	<rect x="296.6" y="722.9" fill="#FFFFFF" width="88.6" height="94.6"/>
	<rect x="410.2" y="723.5" fill="#FFFFFF" width="286" height="5.9"/>
	<rect x="410.2" y="752.6" fill="#FFFFFF" width="286" height="5.9"/>
	<rect x="410.2" y="781.9" fill="#FFFFFF" width="286" height="5.9"/>
	<rect x="410.2" y="811.1" fill="#FFFFFF" width="286" height="5.9"/>
	<rect x="296.6" y="332.1" fill="#FFFFFF" width="88.6" height="94.6"/>
	<rect x="410.2" y="332.7" fill="#FFFFFF" width="286" height="5.9"/>
	<rect x="410.2" y="361.8" fill="#FFFFFF" width="286" height="5.9"/>
	<rect x="410.2" y="391.1" fill="#FFFFFF" width="286" height="5.9"/>
	<rect x="410.2" y="420.3" fill="#FFFFFF" width="286" height="5.9"/>
</g>
<g id="Text">
	<g>
		<path d="M312.6,378.2c0-1.6,0.2-3,0.6-4.2c0.4-1.3,1-2.3,1.7-3.2c0.7-0.9,1.6-1.6,2.7-2c1-0.5,2.2-0.7,3.5-0.7
			c1.1,0,2.1,0.2,3,0.7s1.6,1,2.1,1.7l-0.8,0.9c-0.5-0.6-1.1-1.1-1.9-1.5s-1.5-0.6-2.4-0.6c-1.1,0-2.1,0.2-2.9,0.6
			c-0.9,0.4-1.6,1-2.2,1.8c-0.6,0.8-1.1,1.7-1.4,2.8c-0.3,1.1-0.5,2.3-0.5,3.7c0,1.4,0.2,2.6,0.5,3.7c0.3,1.1,0.8,2.1,1.4,2.8
			c0.6,0.8,1.3,1.4,2.2,1.8c0.8,0.4,1.8,0.6,2.9,0.6c1,0,1.9-0.2,2.7-0.6c0.8-0.4,1.5-1,2.3-1.8l0.8,0.9c-0.8,0.9-1.6,1.6-2.5,2.1
			c-0.9,0.5-2,0.8-3.3,0.8c-1.2,0-2.3-0.2-3.4-0.7c-1-0.5-1.9-1.2-2.6-2.1c-0.7-0.9-1.3-2-1.7-3.2
			C312.8,381.2,312.6,379.8,312.6,378.2z"/>
		<path d="M330.8,368.4h1.4v18.6h9.1v1.2h-10.5V368.4z"/>
		<path d="M344.8,368.4h1.4v19.8h-1.4V368.4z"/>
		<path d="M352,368.4h2l4.1,11.6l1.6,4.4h0.1l1.5-4.4l4.1-11.6h1.9v19.8H366v-13c0-0.8,0-1.7,0.1-2.7c0-0.9,0.1-1.8,0.1-2.7h-0.1
			l-1.6,4.4l-4.2,11.8h-1.2l-4.3-11.8l-1.6-4.4h-0.1c0,0.8,0.1,1.7,0.1,2.7c0,1,0.1,1.8,0.1,2.7v13H352V368.4z"/>
	</g>
	<g>
		<path d="M321.8,507.2H314l-2.3,6.8h-1.4l7-19.8h1.4l7,19.8h-1.4L321.8,507.2z M321.4,506.1l-1.3-3.7c-0.4-1.2-0.8-2.3-1.1-3.4
			c-0.4-1.1-0.7-2.2-1-3.5h-0.1c-0.3,1.2-0.7,2.4-1,3.5c-0.4,1.1-0.7,2.2-1.1,3.4l-1.3,3.7H321.4z"/>
		<path d="M328.7,494.3h10.8v1.2h-9.4v7.9h8v1.2h-8v9.5h-1.4V494.3z"/>
		<path d="M341.4,504.1c0-1.6,0.2-3,0.6-4.2c0.4-1.3,1-2.3,1.7-3.2c0.7-0.9,1.6-1.6,2.7-2c1-0.5,2.2-0.7,3.5-0.7
			c1.1,0,2.1,0.2,3,0.7s1.6,1,2.1,1.7l-0.8,0.9c-0.5-0.6-1.1-1.1-1.9-1.5s-1.5-0.6-2.4-0.6c-1.1,0-2.1,0.2-2.9,0.6
			c-0.9,0.4-1.6,1-2.2,1.8c-0.6,0.8-1.1,1.7-1.4,2.8c-0.3,1.1-0.5,2.3-0.5,3.7c0,1.4,0.2,2.6,0.5,3.7c0.3,1.1,0.8,2.1,1.4,2.8
			c0.6,0.8,1.3,1.4,2.2,1.8c0.8,0.4,1.8,0.6,2.9,0.6c1,0,1.9-0.2,2.7-0.6c0.8-0.4,1.5-1,2.3-1.8l0.8,0.9c-0.8,0.9-1.6,1.6-2.5,2.1
			s-2,0.8-3.3,0.8c-1.2,0-2.3-0.2-3.4-0.7c-1-0.5-1.9-1.2-2.6-2.1c-0.7-0.9-1.3-2-1.7-3.2C341.6,507.1,341.4,505.7,341.4,504.1z"/>
		<path d="M365.8,514.4c-1.2,0-2.3-0.2-3.3-0.7c-1-0.5-1.9-1.2-2.6-2.1c-0.7-0.9-1.3-2-1.7-3.3c-0.4-1.3-0.6-2.7-0.6-4.2
			s0.2-3,0.6-4.2c0.4-1.2,1-2.3,1.7-3.2c0.7-0.9,1.6-1.6,2.6-2s2.1-0.7,3.3-0.7c1.2,0,2.3,0.2,3.3,0.7s1.9,1.1,2.6,2s1.3,2,1.7,3.2
			s0.6,2.7,0.6,4.2s-0.2,3-0.6,4.2s-1,2.4-1.7,3.3s-1.6,1.6-2.6,2.1C368.1,514.1,367,514.4,365.8,514.4z M365.8,513.1
			c1,0,1.9-0.2,2.7-0.6c0.8-0.4,1.5-1,2.1-1.8c0.6-0.8,1-1.7,1.4-2.9c0.3-1.1,0.5-2.4,0.5-3.7c0-1.4-0.2-2.6-0.5-3.7
			c-0.3-1.1-0.8-2-1.4-2.8c-0.6-0.8-1.3-1.4-2.1-1.8c-0.8-0.4-1.7-0.6-2.7-0.6c-1,0-1.9,0.2-2.7,0.6c-0.8,0.4-1.5,1-2.1,1.8
			c-0.6,0.8-1,1.7-1.3,2.8c-0.3,1.1-0.5,2.3-0.5,3.7c0,1.4,0.2,2.6,0.5,3.7c0.3,1.1,0.8,2.1,1.3,2.9c0.6,0.8,1.3,1.4,2.1,1.8
			C363.9,512.9,364.8,513.1,365.8,513.1z"/>
	</g>
	<g>
		<path d="M309.2,628.4H320v1.2h-9.5v7.5h7.9v1.2h-7.9v8.7h9.8v1.2h-11.1V628.4z"/>
		<path d="M323.4,638.2c0-1.6,0.2-3,0.6-4.2c0.4-1.3,1-2.3,1.7-3.2c0.7-0.9,1.6-1.6,2.7-2c1-0.5,2.2-0.7,3.5-0.7
			c1.1,0,2.1,0.2,3,0.7c0.9,0.5,1.6,1,2.1,1.7l-0.8,0.9c-0.5-0.6-1.1-1.1-1.9-1.5s-1.5-0.6-2.4-0.6c-1.1,0-2.1,0.2-2.9,0.6
			c-0.9,0.4-1.6,1-2.2,1.8c-0.6,0.8-1.1,1.7-1.4,2.8c-0.3,1.1-0.5,2.3-0.5,3.7s0.2,2.6,0.5,3.7c0.3,1.1,0.8,2.1,1.4,2.8
			c0.6,0.8,1.3,1.4,2.2,1.8c0.8,0.4,1.8,0.6,2.9,0.6c1,0,1.9-0.2,2.7-0.6c0.8-0.4,1.5-1,2.3-1.8l0.8,0.9c-0.8,0.9-1.6,1.6-2.5,2.1
			s-2,0.8-3.3,0.8c-1.2,0-2.3-0.2-3.4-0.7c-1-0.5-1.9-1.2-2.6-2.1c-0.7-0.9-1.3-2-1.7-3.2C323.6,641.2,323.4,639.8,323.4,638.2z"/>
		<path d="M347.7,648.5c-1.2,0-2.3-0.2-3.3-0.7c-1-0.5-1.9-1.2-2.6-2.1c-0.7-0.9-1.3-2-1.7-3.3c-0.4-1.3-0.6-2.7-0.6-4.2
			c0-1.6,0.2-3,0.6-4.2c0.4-1.2,1-2.3,1.7-3.2c0.7-0.9,1.6-1.6,2.6-2s2.1-0.7,3.3-0.7c1.2,0,2.3,0.2,3.3,0.7s1.9,1.2,2.6,2
			c0.7,0.9,1.3,2,1.7,3.2s0.6,2.7,0.6,4.2c0,1.6-0.2,3-0.6,4.2c-0.4,1.3-1,2.4-1.7,3.3c-0.7,0.9-1.6,1.6-2.6,2.1
			C350,648.3,348.9,648.5,347.7,648.5z M347.7,647.3c1,0,1.9-0.2,2.7-0.6c0.8-0.4,1.5-1,2.1-1.8c0.6-0.8,1-1.7,1.4-2.8
			c0.3-1.1,0.5-2.4,0.5-3.7c0-1.4-0.2-2.6-0.5-3.7c-0.3-1.1-0.8-2-1.4-2.8c-0.6-0.8-1.3-1.4-2.1-1.8c-0.8-0.4-1.7-0.6-2.7-0.6
			c-1,0-1.9,0.2-2.7,0.6c-0.8,0.4-1.5,1-2.1,1.8c-0.6,0.8-1,1.7-1.3,2.8c-0.3,1.1-0.5,2.3-0.5,3.7c0,1.4,0.2,2.6,0.5,3.7
			c0.3,1.1,0.8,2.1,1.3,2.8c0.6,0.8,1.3,1.4,2.1,1.8C345.8,647.1,346.7,647.3,347.7,647.3z"/>
		<path d="M360.4,628.4h1.4l8.3,14l2.2,3.9h0.1c0-1-0.1-1.9-0.1-2.9s-0.1-1.9-0.1-2.9v-12.1h1.3v19.8h-1.4l-8.3-14l-2.2-3.9h-0.1
			c0,1,0.1,1.9,0.1,2.8c0,0.9,0.1,1.8,0.1,2.8v12.3h-1.3V628.4z"/>
	</g>
	<g>
		<path d="M311.2,761.3h4.6c1.5,0,2.8,0.2,4,0.7c1.1,0.5,2.1,1.1,2.8,2c0.7,0.9,1.3,1.9,1.6,3.1c0.4,1.2,0.5,2.5,0.5,4
			s-0.2,2.9-0.5,4.1c-0.4,1.2-0.9,2.3-1.6,3.2c-0.7,0.9-1.7,1.5-2.8,2c-1.1,0.5-2.4,0.7-4,0.7h-4.6V761.3z M315.6,779.9
			c1.3,0,2.5-0.2,3.5-0.6c1-0.4,1.8-1,2.4-1.8c0.6-0.8,1.1-1.7,1.4-2.8c0.3-1.1,0.5-2.3,0.5-3.6c0-1.3-0.2-2.4-0.5-3.5
			c-0.3-1.1-0.8-2-1.4-2.7c-0.6-0.8-1.4-1.3-2.4-1.8c-1-0.4-2.1-0.6-3.5-0.6h-3.1v17.4H315.6z"/>
		<path d="M329.3,761.3h10.8v1.2h-9.5v7.5h7.9v1.2h-7.9v8.7h9.8v1.2h-11.1V761.3z"/>
		<path d="M342,761.3h1.5l3.7,11.5c0.4,1.2,0.7,2.3,1,3.3c0.3,1,0.7,2.1,1.1,3.3h0.1c0.2-0.6,0.4-1.2,0.6-1.7
			c0.2-0.5,0.3-1.1,0.5-1.6c0.2-0.5,0.3-1.1,0.5-1.6s0.3-1.1,0.5-1.7l3.7-11.5h1.4l-6.5,19.8h-1.5L342,761.3z"/>
		<path d="M359.5,761.3h10.8v1.2h-9.5v7.5h7.9v1.2h-7.9v8.7h9.8v1.2h-11.1V761.3z"/>
	</g>
</g>
</svg>
