<?xml version="1.0" encoding="utf-8"?>
<!-- Generator: Adobe Illustrator 18.0.0, SVG Export Plug-In . SVG Version: 6.00 Build 0)  -->
<!DOCTYPE svg PUBLIC "-//W3C//DTD SVG 1.1//EN" "http://www.w3.org/Graphics/SVG/1.1/DTD/svg11.dtd">
<svg version="1.1" xmlns="http://www.w3.org/2000/svg" xmlns:xlink="http://www.w3.org/1999/xlink" x="0px" y="0px"
	 viewBox="0 0 1024.5 1024.5" enable-background="new 0 0 1024.5 1024.5" xml:space="preserve">
<g id="Layer_1">
	<path fill="#FFFFFF" d="M399.5,152c9.3,0,13.3,4,13.3,13.3c0,9.3-4,13.3-13.3,13.3c-9.3,0-13.3-4-13.3-13.3
		C386.3,156,390.2,152,399.5,152z M353.1,152c9.3,0,13.3,4,13.3,13.3c0,9.3-4,13.3-13.3,13.3c-9.3,0-13.3-4-13.3-13.3
		C339.8,156,343.8,152,353.1,152z M306.7,152c9.3,0,13.3,4,13.3,13.3c0,9.3-4,13.3-13.3,13.3c-9.3,0-13.3-4-13.3-13.3
		C293.4,156,297.4,152,306.7,152z M751,211.7H273.5v305c0,7.3,6,13.3,13.3,13.3h450.9c7.3,0,13.3-6,13.3-13.3L751,211.7L751,211.7z
		 M273.5,198.5H751v-53.1c0-7.3-6-13.3-13.3-13.3h-451c-7.3,0-13.3,5.9-13.3,13.3V198.5z M286.8,543.3c-14.6,0-26.5-11.9-26.5-26.5
		V145.4c0-14.6,11.9-26.5,26.5-26.5h450.9c14.6,0,26.5,11.9,26.5,26.5v371.3c0,14.6-11.9,26.5-26.5,26.5H286.8z"/>
	<rect x="500.6" y="305.4" fill="#FFFFFF" width="50.2" height="53.6"/>
	<rect x="565" y="305.7" fill="#FFFFFF" width="162.2" height="3.3"/>
	<rect x="565" y="322.2" fill="#FFFFFF" width="162.2" height="3.3"/>
	<rect x="565" y="338.8" fill="#FFFFFF" width="162.2" height="3.3"/>
	<rect x="565" y="355.4" fill="#FFFFFF" width="162.2" height="3.3"/>
	<rect x="500.6" y="233.6" fill="#FFFFFF" width="50.2" height="53.6"/>
	<rect x="565" y="233.9" fill="#FFFFFF" width="162.2" height="3.3"/>
	<rect x="565" y="250.5" fill="#FFFFFF" width="162.2" height="3.3"/>
	<rect x="565" y="267.1" fill="#FFFFFF" width="162.2" height="3.3"/>
	<rect x="565" y="283.6" fill="#FFFFFF" width="162.2" height="3.3"/>
	<path fill="#FFFFFF" d="M353,481.4c-23.5,0-42.6-19.1-42.6-42.6c0-23.5,19.1-42.6,42.6-42.6s42.6,19,42.6,42.6H353V481.4z"/>
	<path fill="#FFFFFF" d="M358.7,488.7c25.7,0,46.6-17.4,46.6-43.2h-46.6V488.7z"/>
	<rect x="440.7" y="404.8" fill="#FFFFFF" width="79.7" height="13.1"/>
	<rect x="440.7" y="437.1" fill="#FFFFFF" width="95.2" height="13.1"/>
	<rect x="440.7" y="468.4" fill="#FFFFFF" width="79.7" height="13.1"/>
	<line fill="#FFFFFF" x1="423.3" y1="393.5" x2="423.3" y2="485.5"/>
	
		<line fill="#FFFFFF" stroke="#FFFFFF" stroke-width="2.0375" stroke-linecap="round" stroke-miterlimit="10" x1="423.3" y1="393.5" x2="423.3" y2="485.5"/>
	<path fill="#FFFFFF" d="M343,868.2c-6.6-3.1-10-3.7-10.3-3.9c-0.2-0.1-11.3-3-16.4-5.8c-1.2-0.8-2-1.3-2-1.3v-5.5
		c0,0,15,0.5,22.1-6.8c0,0-10.4-2.9-8.5-21.8c1.9-18.8-2.3-35.4-17.5-34c0,0-6.6-7.9-19.6-2.9c-4.5,1.7-16.5,6-15.9,32.1
		s-9.3,26.3-9.3,26.3s5.1,7.4,22.4,7.3v5.3c0,0-0.8,0.6-2,1.3c-5.1,2.8-16.2,5.7-16.4,5.8c-0.1,0-0.4,0.1-0.9,0.2
		c4.5,1.7,9.8,3.5,15.3,4.9c4.4,1.1,8.3,3.3,11.3,6.5c2.5,2.6,4.4,5.9,5.7,9.7c1.9,5.6,2.1,11.6,1.9,15.8c0,0.1,0,0.2,0,0.3
		c0,0.3,0,0.8,0,1.3c6.6-0.3,36.9-2.4,47-13.9v-11C350,878.1,349.7,871.3,343,868.2z M155,902.1c-0.3-4.3-0.2-10.6,1.8-16.5
		c1.3-3.8,3.2-7.1,5.7-9.7c3-3.2,6.8-5.4,11.3-6.5c5.5-1.4,10.6-3,15-4.6c-0.9-0.3-1.4-0.4-1.5-0.4c-0.2-0.1-11.3-3-16.4-5.8
		c-1.2-0.8-2-1.3-2-1.3v-5.5c0,0,15,0.5,22.1-6.8c0,0-10.4-2.9-8.5-21.8c1.9-18.8-2.3-35.4-17.5-34c0,0-6.6-7.9-19.6-2.9
		c-4.5,1.7-16.5,6-15.9,32.1s-9.3,26.3-9.3,26.3s5.1,7.4,22.4,7.3v5.3c0,0-0.8,0.6-2,1.3c-5.1,2.8-16.2,5.7-16.4,5.8
		c-0.2,0.1-3.6,0.7-10.3,3.9c-6.7,3.1-7,9.9-7,9.9v11c10.1,11.6,41.2,13.7,48,14C155,902.7,155,902.4,155,902.1z M294.5,901.9
		L294.5,901.9c0.1,0,0.2,9.7-1.4,13.7c0,0-24,15.6-64.1,15.6l0-0.9l-0.1,0.9c-40.1,0-64.1-15.6-64.1-15.6
		c-1.6-3.9-1.4-13.7-1.4-13.7c-0.5-7,0.1-21.1,12.4-24.3c16.4-4.2,30.1-10.6,30.1-10.6c2.7-3.7,3.2-11.5,3.2-11.5
		c-5.1-5.5-7.4-12.5-8.4-18.3c-0.3,0.2-0.7,0.4-1.2,0.4c-1.5,0-3.6-2.3-5.8-10.9c-2.8-10.8-0.2-12.9,2.4-12.9c0.6,0,0.7,0,1.2,0.1
		v-0.2c0,0-7.6-25.2,10.6-36.3c0,0-3.2-2.6-2.9-6.3c0,0,8.3,0.9,16.3,1c3.6,0,7.2-0.2,9.9-0.7c1.1-0.2,2.1-0.3,3.2-0.3
		c7.5,0.2,14.7,6,16,11.7c0,0,0.1,0,0.3,0c2.4,0,17.3,1.1,10.1,31.1c0,0,0,0,0,0.1c0.3-0.1,0.7-0.1,1.1-0.1c2.6,0,5.2,2.1,2.4,12.9
		c-2.2,8.6-4.3,10.9-5.9,10.9c-0.5,0-1-0.2-1.4-0.6c-0.9,5.9-3.2,12.9-8.4,18.5l0.3,0c0,0,0.4,6.9,2.7,10.8
		c0.1,0,14.2,7.1,30.6,11.3C294.4,880.7,295,894.9,294.5,901.9z"/>
	<path fill="#FFFFFF" d="M929,868.2c-6.6-3.1-10-3.7-10.3-3.9c-0.2-0.1-11.3-3-16.4-5.8c-1.2-0.8-2-1.3-2-1.3v-5.5
		c0,0,15,0.5,22.1-6.8c0,0-10.4-2.9-8.5-21.8c1.9-18.8-2.3-35.4-17.5-34c0,0-6.6-7.9-19.6-2.9c-4.5,1.7-16.5,6-15.9,32.1
		s-9.3,26.3-9.3,26.3s5.1,7.4,22.4,7.3v5.3c0,0-0.8,0.6-2,1.3c-5.1,2.8-16.2,5.7-16.4,5.8c-0.1,0-0.4,0.1-0.9,0.2
		c4.5,1.7,9.8,3.5,15.3,4.9c4.4,1.1,8.3,3.3,11.3,6.5c2.5,2.6,4.4,5.9,5.7,9.7c1.9,5.6,2.1,11.6,1.9,15.8c0,0.1,0,0.2,0,0.3
		c0,0.3,0,0.8,0,1.3c6.6-0.3,36.9-2.4,47-13.9v-11C936,878.1,935.6,871.3,929,868.2z M740.9,902.1c-0.3-4.3-0.2-10.6,1.8-16.5
		c1.3-3.8,3.2-7.1,5.7-9.7c3-3.2,6.8-5.4,11.3-6.5c5.5-1.4,10.6-3,15-4.6c-0.9-0.3-1.4-0.4-1.5-0.4c-0.2-0.1-11.3-3-16.4-5.8
		c-1.2-0.8-2-1.3-2-1.3v-5.5c0,0,15,0.5,22.1-6.8c0,0-10.4-2.9-8.5-21.8c1.9-18.8-2.3-35.4-17.5-34c0,0-6.6-7.9-19.6-2.9
		c-4.5,1.7-16.5,6-15.9,32.1c0.6,26.1-9.3,26.3-9.3,26.3s5.1,7.4,22.4,7.3v5.3c0,0-0.8,0.6-2,1.3c-5.1,2.8-16.2,5.7-16.4,5.8
		c-0.2,0.1-3.6,0.7-10.3,3.9c-6.7,3.1-7,9.9-7,9.9v11c10.1,11.6,41.2,13.7,48,14C740.9,902.7,740.9,902.4,740.9,902.1z M880.4,901.9
		L880.4,901.9c0.1,0,0.2,9.7-1.4,13.7c0,0-24,15.6-64.1,15.6l0-0.9l-0.1,0.9c-40.1,0-64.1-15.6-64.1-15.6
		c-1.6-3.9-1.4-13.7-1.4-13.7c-0.5-7,0.1-21.1,12.4-24.3c16.4-4.2,30.1-10.6,30.1-10.6c2.7-3.7,3.2-11.5,3.2-11.5
		c-5.1-5.5-7.4-12.5-8.4-18.3c-0.3,0.2-0.7,0.4-1.2,0.4c-1.5,0-3.6-2.3-5.8-10.9c-2.8-10.8-0.2-12.9,2.4-12.9c0.6,0,0.7,0,1.2,0.1
		v-0.2c0,0-7.6-25.2,10.6-36.3c0,0-3.2-2.6-2.9-6.3c0,0,8.3,0.9,16.3,1c3.6,0,7.2-0.2,9.9-0.7c1.1-0.2,2.1-0.3,3.2-0.3
		c7.5,0.2,14.7,6,16,11.7c0,0,0.1,0,0.3,0c2.4,0,17.3,1.1,10.1,31.1c0,0,0,0,0,0.1c0.3-0.1,0.7-0.1,1.1-0.1c2.6,0,5.2,2.1,2.4,12.9
		c-2.2,8.6-4.3,10.9-5.9,10.9c-0.5,0-1-0.2-1.4-0.6c-0.9,5.9-3.2,12.9-8.4,18.5l0.3,0c0,0,0.4,6.9,2.7,10.8
		c0.1,0,14.2,7.1,30.6,11.3C880.3,880.7,880.9,894.9,880.4,901.9z"/>
	<g>
		<g>
			<path fill="#FFFFFF" d="M240.1,729.3c-0.6-16.6,0.3-33.4,1.5-49.9c2.6-35.3,8.2-70.6,19-104.3c10.3-32.3,26.3-64.7,53.5-86.1
				c5.1-4-2.1-11-7.1-7.1c-29.1,23-45.8,58.1-56.7,92.7c-10.7,33.9-16,69.4-18.6,104.8c-1.2,16.6-2.1,33.3-1.5,49.9
				C230.3,735.8,240.3,735.8,240.1,729.3L240.1,729.3z"/>
		</g>
	</g>
	<g>
		<g>
			<path fill="#FFFFFF" d="M829.5,740.1c2.5-39.6,1.9-79.7-0.1-119.3c-3.6-71.8-12.2-146.6-40.4-213.3
				c-10.8-25.5-25.4-50.4-46.4-68.8c-4.8-4.2-11.9,2.8-7.1,7.1c23.7,20.9,38.8,49.8,49.7,79c12.8,34.4,20.4,70.6,25.8,106.9
				c9,60.8,11.2,122.9,9.6,184.3c-0.2,8.1-0.5,16.1-1,24.2C819.1,746.5,829.1,746.5,829.5,740.1L829.5,740.1z"/>
		</g>
	</g>
</g>
<g id="Text">
	<g>
		<path d="M509.7,259.8c0-0.9,0.1-1.7,0.3-2.4c0.2-0.7,0.6-1.3,1-1.8s0.9-0.9,1.5-1.2c0.6-0.3,1.2-0.4,2-0.4c0.6,0,1.2,0.1,1.7,0.4
			c0.5,0.3,0.9,0.6,1.2,0.9l-0.5,0.5c-0.3-0.3-0.6-0.6-1.1-0.8c-0.4-0.2-0.9-0.3-1.4-0.3c-0.6,0-1.2,0.1-1.7,0.4
			c-0.5,0.2-0.9,0.6-1.3,1c-0.3,0.4-0.6,1-0.8,1.6c-0.2,0.6-0.3,1.3-0.3,2.1c0,0.8,0.1,1.5,0.3,2.1c0.2,0.6,0.4,1.2,0.8,1.6
			c0.3,0.4,0.8,0.8,1.2,1c0.5,0.2,1,0.4,1.6,0.4c0.6,0,1.1-0.1,1.5-0.3s0.9-0.6,1.3-1l0.5,0.5c-0.4,0.5-0.9,0.9-1.4,1.2
			c-0.5,0.3-1.2,0.4-1.9,0.4c-0.7,0-1.3-0.1-1.9-0.4c-0.6-0.3-1.1-0.7-1.5-1.2c-0.4-0.5-0.7-1.1-1-1.8
			C509.8,261.5,509.7,260.7,509.7,259.8z"/>
		<path d="M520,254.2h0.8v10.5h5.2v0.7h-6V254.2z"/>
		<path d="M527.9,254.2h0.8v11.2h-0.8V254.2z"/>
		<path d="M532,254.2h1.1l2.3,6.6l0.9,2.5h0.1l0.9-2.5l2.3-6.6h1.1v11.2H540V258c0-0.5,0-1,0-1.5s0-1,0.1-1.5H540l-0.9,2.5l-2.4,6.7
			H536l-2.4-6.7l-0.9-2.5h-0.1c0,0.5,0,1,0.1,1.5s0,1,0,1.5v7.4H532V254.2z"/>
	</g>
	<g>
		<path d="M514.9,333h-4.4l-1.3,3.8h-0.8l3.9-11.2h0.8l3.9,11.2h-0.8L514.9,333z M514.7,332.3l-0.7-2.1c-0.2-0.7-0.4-1.3-0.6-1.9
			s-0.4-1.3-0.6-2h-0.1c-0.2,0.7-0.4,1.3-0.6,2c-0.2,0.6-0.4,1.3-0.6,1.9l-0.7,2.1H514.7z"/>
		<path d="M518.8,325.6h6.1v0.7h-5.3v4.5h4.5v0.7h-4.5v5.4h-0.8V325.6z"/>
		<path d="M526,331.2c0-0.9,0.1-1.7,0.3-2.4c0.2-0.7,0.6-1.3,1-1.8s0.9-0.9,1.5-1.2c0.6-0.3,1.2-0.4,2-0.4c0.6,0,1.2,0.1,1.7,0.4
			c0.5,0.3,0.9,0.6,1.2,0.9l-0.5,0.5c-0.3-0.3-0.6-0.6-1.1-0.8c-0.4-0.2-0.9-0.3-1.4-0.3c-0.6,0-1.2,0.1-1.7,0.4
			c-0.5,0.2-0.9,0.6-1.3,1c-0.3,0.4-0.6,1-0.8,1.6c-0.2,0.6-0.3,1.3-0.3,2.1c0,0.8,0.1,1.5,0.3,2.1c0.2,0.6,0.4,1.2,0.8,1.6
			c0.3,0.4,0.8,0.8,1.2,1c0.5,0.2,1,0.4,1.6,0.4c0.6,0,1.1-0.1,1.5-0.3s0.9-0.6,1.3-1l0.5,0.5c-0.4,0.5-0.9,0.9-1.4,1.2
			c-0.5,0.3-1.2,0.4-1.9,0.4c-0.7,0-1.3-0.1-1.9-0.4c-0.6-0.3-1.1-0.7-1.5-1.2c-0.4-0.5-0.7-1.1-1-1.8
			C526.1,332.9,526,332.1,526,331.2z"/>
		<path d="M539.8,337c-0.7,0-1.3-0.1-1.9-0.4c-0.6-0.3-1.1-0.7-1.5-1.2c-0.4-0.5-0.7-1.1-1-1.8c-0.2-0.7-0.3-1.5-0.3-2.4
			s0.1-1.7,0.3-2.4c0.2-0.7,0.5-1.3,1-1.8s0.9-0.9,1.5-1.2c0.6-0.3,1.2-0.4,1.9-0.4c0.7,0,1.3,0.1,1.9,0.4c0.6,0.3,1.1,0.7,1.5,1.2
			c0.4,0.5,0.7,1.1,1,1.8c0.2,0.7,0.3,1.5,0.3,2.4s-0.1,1.7-0.3,2.4c-0.2,0.7-0.5,1.3-1,1.8c-0.4,0.5-0.9,0.9-1.5,1.2
			S540.5,337,539.8,337z M539.8,336.3c0.6,0,1.1-0.1,1.5-0.4c0.5-0.2,0.9-0.6,1.2-1c0.3-0.4,0.6-1,0.8-1.6s0.3-1.3,0.3-2.1
			c0-0.8-0.1-1.5-0.3-2.1c-0.2-0.6-0.4-1.2-0.8-1.6c-0.3-0.4-0.7-0.8-1.2-1c-0.5-0.2-1-0.4-1.5-0.4c-0.6,0-1.1,0.1-1.6,0.4
			c-0.5,0.2-0.9,0.6-1.2,1s-0.6,1-0.8,1.6c-0.2,0.6-0.3,1.3-0.3,2.1c0,0.8,0.1,1.5,0.3,2.1s0.4,1.2,0.8,1.6c0.3,0.4,0.7,0.8,1.2,1
			C538.7,336.2,539.3,336.3,539.8,336.3z"/>
	</g>
</g>
</svg>
