<?xml version="1.0" encoding="utf-8"?>
<!-- Generator: Adobe Illustrator 18.0.0, SVG Export Plug-In . SVG Version: 6.00 Build 0)  -->
<!DOCTYPE svg PUBLIC "-//W3C//DTD SVG 1.1//EN" "http://www.w3.org/Graphics/SVG/1.1/DTD/svg11.dtd">
<svg version="1.1" xmlns="http://www.w3.org/2000/svg" xmlns:xlink="http://www.w3.org/1999/xlink" x="0px" y="0px"
	 viewBox="0 0 1024 1024" enable-background="new 0 0 1024 1024" xml:space="preserve">
<g id="Layer_1">
	<path fill="#FFFFFF" d="M337.2,188.3c16.4,0,23.4,7,23.4,23.4c0,16.4-7,23.4-23.4,23.4c-16.4,0-23.4-7-23.4-23.4
		C313.8,195.2,320.8,188.3,337.2,188.3z M255.3,188.3c16.4,0,23.4,7,23.4,23.4c0,16.4-7,23.4-23.4,23.4c-16.4,0-23.4-7-23.4-23.4
		C232,195.2,239,188.3,255.3,188.3z M173.5,188.3c16.4,0,23.4,7,23.4,23.4c0,16.4-7,23.4-23.4,23.4c-16.4,0-23.4-7-23.4-23.4
		C150.1,195.2,157.2,188.3,173.5,188.3z M956.9,293.5H115v537.8c0,12.9,10.5,23.4,23.4,23.4h795.1c12.9,0,23.4-10.5,23.4-23.4
		L956.9,293.5L956.9,293.5z M115,270.1h841.9v-93.6c0-12.9-10.5-23.4-23.4-23.4H138.4c-12.9,0-23.4,10.5-23.4,23.4V270.1z
		 M138.4,878.1c-25.7,0-46.8-21.1-46.8-46.8V176.5c0-25.7,21.1-46.8,46.8-46.8h795.1c25.7,0,46.8,21.1,46.8,46.8v654.8
		c0,25.7-21,46.8-46.8,46.8H138.4z"/>
	<path fill="#FFFFFF" d="M239.8,750.8c-41.5,0-75-33.6-75-75c0-41.5,33.6-75,75-75s75,33.6,75,75h-75V750.8z"/>
	<path fill="#FFFFFF" d="M249.7,763.8c45.4,0,82.2-30.7,82.2-76.1h-82.2V763.8z"/>
	<rect x="394.4" y="615.9" fill="#FFFFFF" width="140.6" height="23.2"/>
	<rect x="394.4" y="672.8" fill="#FFFFFF" width="167.8" height="23.1"/>
	<rect x="394.4" y="727.9" fill="#FFFFFF" width="140.6" height="23.1"/>
	<line fill="#FFFFFF" x1="363.7" y1="595.9" x2="363.7" y2="758"/>
	
		<line fill="#FFFFFF" stroke="#FFFFFF" stroke-width="2.0375" stroke-linecap="round" stroke-miterlimit="10" x1="363.7" y1="595.9" x2="363.7" y2="758"/>
	<path fill="#FFFFFF" d="M825.1,331.2l23.5,23.1l-81.7,74.3l-48.2-54.3l-56.5,73.8l-40.4-45L558,466.7v30.9l63-62.7l42.6,47.4
		l56.4-73.7l45.3,51l98.8-90.1l24.3,24.4v-62.7H825.1z M805.8,536.1h19.8V422l-19.8,20.2V536.1z M852,397.4v138.7h23.1V400l-12.4-12
		L852,397.4z M558,536.1h23.1v-41.4L558,517.1V536.1z M607.5,467.6v68.5h23.1v-71.5l-9.5-10.1L607.5,467.6z M657.1,494.7v41.4h23.1
		v-51.4l-14.8,18.8L657.1,494.7z M706.6,449.3v86.8h19.8v-98.2l-6-8.1L706.6,449.3z M756.2,468.3v67.8H776v-69.2l-11.8,11.8
		L756.2,468.3z"/>
</g>
<g id="Text">
</g>
</svg>
