<?xml version="1.0" encoding="utf-8"?>
<!-- Generator: Adobe Illustrator 18.0.0, SVG Export Plug-In . SVG Version: 6.00 Build 0)  -->
<!DOCTYPE svg PUBLIC "-//W3C//DTD SVG 1.1//EN" "http://www.w3.org/Graphics/SVG/1.1/DTD/svg11.dtd">
<svg version="1.1" xmlns="http://www.w3.org/2000/svg" xmlns:xlink="http://www.w3.org/1999/xlink" x="0px" y="0px"
	 viewBox="0 0 1025.5 1025.5" enable-background="new 0 0 1025.5 1025.5" xml:space="preserve">
<g id="Layer_1">
	<path fill="#FFFFFF" d="M366,84.1c12.1,0,17.3,5.2,17.3,17.3c0,12.1-5.2,17.3-17.3,17.3c-12.1,0-17.3-5.2-17.3-17.3
		C348.7,89.3,353.9,84.1,366,84.1z M305.5,84.1c12.1,0,17.3,5.2,17.3,17.3c0,12.1-5.2,17.3-17.3,17.3c-12.1,0-17.3-5.2-17.3-17.3
		C288.2,89.3,293.4,84.1,305.5,84.1z M245,84.1c12.1,0,17.3,5.2,17.3,17.3c0,12.1-5.2,17.3-17.3,17.3c-12.1,0-17.3-5.2-17.3-17.3
		C227.7,89.3,232.9,84.1,245,84.1z M824,161.9H201.8v397.5c0,9.5,7.8,17.3,17.3,17.3h587.6c9.5,0,17.3-7.8,17.3-17.3L824,161.9
		L824,161.9z M201.8,144.6H824V75.4c0-9.5-7.8-17.3-17.3-17.3H219.1c-9.5,0-17.3,7.7-17.3,17.3V144.6z M219.1,593.9
		c-19,0-34.6-15.6-34.6-34.6V75.4c0-19,15.6-34.6,34.6-34.6h587.6c19,0,34.6,15.6,34.6,34.6v483.9c0,19-15.5,34.6-34.6,34.6H219.1z"
		/>
	<rect x="497.7" y="283.9" fill="#FFFFFF" width="65.5" height="69.9"/>
	<rect x="581.6" y="284.3" fill="#FFFFFF" width="211.3" height="4.3"/>
	<rect x="581.6" y="305.9" fill="#FFFFFF" width="211.3" height="4.3"/>
	<rect x="581.6" y="327.5" fill="#FFFFFF" width="211.3" height="4.3"/>
	<rect x="581.6" y="349" fill="#FFFFFF" width="211.3" height="4.3"/>
	<rect x="497.7" y="190.4" fill="#FFFFFF" width="65.5" height="69.9"/>
	<rect x="581.7" y="190.8" fill="#FFFFFF" width="211.3" height="4.3"/>
	<rect x="581.7" y="212.4" fill="#FFFFFF" width="211.3" height="4.3"/>
	<rect x="581.7" y="234" fill="#FFFFFF" width="211.3" height="4.3"/>
	<rect x="581.7" y="255.6" fill="#FFFFFF" width="211.3" height="4.3"/>
	<path fill="#FFFFFF" d="M305.4,513.2c-30.6,0-55.5-24.8-55.5-55.5c0-30.6,24.8-55.5,55.5-55.5s55.5,24.8,55.5,55.5h-55.5V513.2z"/>
	<path fill="#FFFFFF" d="M312.7,522.8c33.5,0,60.7-22.7,60.7-56.2h-60.7V522.8z"/>
	<rect x="419.6" y="413.5" fill="#FFFFFF" width="103.9" height="17.1"/>
	<rect x="419.6" y="455.6" fill="#FFFFFF" width="124" height="17.1"/>
	<rect x="419.6" y="496.3" fill="#FFFFFF" width="103.9" height="17.1"/>
	<line fill="#FFFFFF" x1="396.9" y1="398.8" x2="396.9" y2="518.6"/>
	
		<line fill="#FFFFFF" stroke="#FFFFFF" stroke-width="2.0375" stroke-linecap="round" stroke-miterlimit="10" x1="396.9" y1="398.8" x2="396.9" y2="518.6"/>
	<path fill="#FFFFFF" d="M671.9,877.1c-9.3-4.4-14-5.2-14.3-5.4c-0.3-0.1-15.8-4.2-23-8.1c-1.7-1.1-2.7-1.9-2.7-1.9V854
		c0,0,20.9,0.6,30.9-9.5c0,0-14.5-4.1-11.8-30.4c2.6-26.3-3.2-49.4-24.4-47.5c0,0-9.2-11-27.4-4.1c-6.3,2.4-23.1,8.4-22.2,44.9
		c0.9,36.5-13,36.7-13,36.7s7.1,10.4,31.3,10.2v7.4c0,0-1.1,0.8-2.7,1.9c-7.1,3.9-22.7,8-23,8.1c-0.1,0-0.5,0.1-1.2,0.3
		c6.3,2.4,13.7,4.8,21.4,6.8c6.2,1.6,11.5,4.7,15.7,9.1c3.5,3.7,6.1,8.2,7.9,13.5c2.6,7.9,2.9,16.1,2.6,22.1c0,0.2,0,0.3,0,0.5
		c0,0.5,0,1.1,0,1.8c9.2-0.4,51.6-3.3,65.7-19.5V891C681.7,891,681.2,881.5,671.9,877.1z M409,924.5c-0.4-6.1-0.2-14.8,2.6-23.1
		c1.8-5.3,4.5-9.9,7.9-13.5c4.2-4.5,9.5-7.5,15.7-9.1c7.7-1.9,14.9-4.3,21-6.4c-1.3-0.4-2-0.5-2.1-0.6c-0.3-0.1-15.8-4.2-23-8.1
		c-1.7-1.1-2.7-1.9-2.7-1.9V854c0,0,20.9,0.6,30.9-9.5c0,0-14.5-4.1-11.8-30.4c2.6-26.3-3.2-49.4-24.4-47.5c0,0-9.2-11-27.4-4.1
		c-6.3,2.4-23.1,8.4-22.2,44.9c0.9,36.5-13,36.7-13,36.7s7.1,10.4,31.3,10.2v7.4c0,0-1.1,0.8-2.7,1.9c-7.1,3.9-22.7,8-23,8.1
		c-0.3,0.2-5.1,1-14.3,5.4c-9.3,4.4-9.8,13.9-9.8,13.9v15.4c14.1,16.2,57.6,19.1,67,19.6C409,925.3,409,924.9,409,924.5z M604,924.2
		L604,924.2c0.1,0,0.3,13.6-1.9,19.1c0,0-33.5,21.7-89.5,21.7l0-1.3l-0.1,1.3c-56.1,0-89.5-21.7-89.5-21.7c-2.2-5.5-2-19.1-2-19.1
		c-0.7-9.8,0.1-29.5,17.3-33.9c23-5.8,42.1-14.8,42.1-14.8c3.8-5.2,4.4-16,4.4-16c-7.2-7.7-10.4-17.4-11.7-25.6
		c-0.5,0.3-1,0.6-1.6,0.6c-2.2,0-5.1-3.2-8.2-15.2c-3.9-15.1-0.2-18,3.3-18c0.8,0,1,0,1.7,0.2v-0.3c0,0-10.6-35.2,14.8-50.7
		c0,0-4.5-3.6-4.1-8.8c0,0,11.7,1.3,22.8,1.3c5.1,0,10.1-0.2,13.8-1c1.5-0.3,3-0.4,4.5-0.4c10.5,0.3,20.5,8.4,22.3,16.3
		c0,0,0.2,0,0.4,0c3.3,0,24.1,1.6,14.1,43.5c0,0,0,0.1,0,0.2c0.5-0.1,1-0.2,1.5-0.2c3.6,0,7.3,2.9,3.4,18
		c-3.1,12.1-6.1,15.2-8.2,15.2c-0.7,0-1.4-0.3-1.9-0.8c-1.3,8.3-4.5,18.1-11.8,25.9l0.4,0c0,0,0.6,9.6,3.8,15.1
		c0.1,0.1,19.8,9.9,42.7,15.7C603.9,894.6,604.7,914.4,604,924.2z"/>
	<g>
		<line fill="#FFFFFF" x1="512.3" y1="721" x2="512.3" y2="584"/>
		<g>
			<path fill="#FFFFFF" d="M517.6,721.4c0-45.6,0-91.2,0-136.8c0-0.1,0-0.2,0-0.3c0-6.4-10-6.4-10,0c0,45.6,0,91.2,0,136.8
				c0,0.1,0,0.2,0,0.3C507.6,727.8,517.6,727.8,517.6,721.4L517.6,721.4z"/>
		</g>
	</g>
</g>
<g id="Text">
	<g>
		<path d="M509.5,224.5c0-1.2,0.2-2.2,0.5-3.1s0.7-1.7,1.3-2.4c0.5-0.7,1.2-1.2,2-1.5s1.6-0.5,2.5-0.5c0.8,0,1.6,0.2,2.2,0.5
			c0.6,0.4,1.2,0.8,1.6,1.2l-0.6,0.7c-0.4-0.4-0.8-0.8-1.4-1.1c-0.5-0.3-1.1-0.4-1.8-0.4c-0.8,0-1.5,0.2-2.2,0.5
			c-0.6,0.3-1.2,0.8-1.6,1.3s-0.8,1.3-1,2.1c-0.2,0.8-0.4,1.7-0.4,2.7c0,1,0.1,1.9,0.4,2.8c0.2,0.8,0.6,1.5,1,2.1
			c0.4,0.6,1,1,1.6,1.3c0.6,0.3,1.3,0.5,2.1,0.5c0.8,0,1.4-0.1,2-0.4c0.6-0.3,1.1-0.7,1.7-1.4l0.6,0.6c-0.6,0.7-1.2,1.2-1.9,1.5
			c-0.7,0.4-1.5,0.6-2.5,0.6c-0.9,0-1.7-0.2-2.5-0.5c-0.8-0.4-1.4-0.9-1.9-1.5c-0.5-0.7-1-1.5-1.3-2.4
			C509.7,226.7,509.5,225.6,509.5,224.5z"/>
		<path d="M523,217.2h1v13.7h6.7v0.9H523V217.2z"/>
		<path d="M533.3,217.2h1v14.6h-1V217.2z"/>
		<path d="M538.6,217.2h1.4l3.1,8.6l1.2,3.2h0.1l1.1-3.2l3.1-8.6h1.4v14.6h-1v-9.6c0-0.6,0-1.3,0-2c0-0.7,0.1-1.4,0.1-2H549
			l-1.2,3.2l-3.1,8.7h-0.9l-3.1-8.7l-1.2-3.2h-0.1c0,0.6,0.1,1.3,0.1,2c0,0.7,0,1.4,0,2v9.6h-1V217.2z"/>
	</g>
	<g>
		<path d="M516.3,319.8h-5.8l-1.7,5h-1l5.1-14.6h1l5.1,14.6H518L516.3,319.8z M516,319l-0.9-2.7c-0.3-0.9-0.6-1.7-0.8-2.5
			c-0.3-0.8-0.5-1.6-0.8-2.5h-0.1c-0.3,0.9-0.5,1.8-0.8,2.5c-0.3,0.8-0.5,1.6-0.8,2.5l-0.9,2.7H516z"/>
		<path d="M521.4,310.2h8v0.9h-6.9v5.8h5.9v0.9h-5.9v7h-1V310.2z"/>
		<path d="M530.8,317.5c0-1.2,0.2-2.2,0.5-3.1s0.7-1.7,1.3-2.4c0.5-0.7,1.2-1.2,2-1.5s1.6-0.5,2.5-0.5c0.8,0,1.6,0.2,2.2,0.5
			c0.6,0.4,1.2,0.8,1.6,1.2l-0.6,0.7c-0.4-0.4-0.8-0.8-1.4-1.1c-0.5-0.3-1.1-0.4-1.8-0.4c-0.8,0-1.5,0.2-2.2,0.5
			c-0.6,0.3-1.2,0.8-1.6,1.3s-0.8,1.3-1,2.1c-0.2,0.8-0.4,1.7-0.4,2.7c0,1,0.1,1.9,0.4,2.8c0.2,0.8,0.6,1.5,1,2.1
			c0.4,0.6,1,1,1.6,1.3c0.6,0.3,1.3,0.5,2.1,0.5c0.8,0,1.4-0.1,2-0.4c0.6-0.3,1.1-0.7,1.7-1.4l0.6,0.6c-0.6,0.7-1.2,1.2-1.9,1.5
			c-0.7,0.4-1.5,0.6-2.5,0.6c-0.9,0-1.7-0.2-2.5-0.5c-0.8-0.4-1.4-0.9-1.9-1.5c-0.5-0.7-1-1.5-1.3-2.4
			C531,319.7,530.8,318.7,530.8,317.5z"/>
		<path d="M548.8,325.1c-0.9,0-1.7-0.2-2.4-0.5c-0.7-0.4-1.4-0.9-1.9-1.5s-0.9-1.5-1.2-2.4c-0.3-0.9-0.4-2-0.4-3.1s0.1-2.2,0.4-3.1
			c0.3-0.9,0.7-1.7,1.2-2.4c0.5-0.7,1.2-1.2,1.9-1.5s1.5-0.5,2.4-0.5c0.9,0,1.7,0.2,2.4,0.5s1.4,0.9,1.9,1.5
			c0.5,0.7,0.9,1.4,1.2,2.4c0.3,0.9,0.4,2,0.4,3.1s-0.1,2.2-0.4,3.1c-0.3,0.9-0.7,1.7-1.2,2.4c-0.5,0.7-1.2,1.2-1.9,1.5
			C550.5,324.9,549.7,325.1,548.8,325.1z M548.8,324.2c0.7,0,1.4-0.2,2-0.5c0.6-0.3,1.1-0.8,1.6-1.4c0.4-0.6,0.8-1.3,1-2.1
			s0.4-1.7,0.4-2.8c0-1-0.1-1.9-0.4-2.7c-0.2-0.8-0.6-1.5-1-2.1c-0.4-0.6-1-1-1.6-1.3c-0.6-0.3-1.3-0.5-2-0.5s-1.4,0.2-2,0.5
			c-0.6,0.3-1.1,0.8-1.6,1.3s-0.8,1.3-1,2.1c-0.2,0.8-0.4,1.7-0.4,2.7c0,1,0.1,1.9,0.4,2.8c0.2,0.8,0.6,1.5,1,2.1
			c0.4,0.6,0.9,1,1.6,1.4C547.4,324,548.1,324.2,548.8,324.2z"/>
	</g>
</g>
</svg>
