<?xml version="1.0" encoding="utf-8"?>
<!-- Generator: Adobe Illustrator 18.0.0, SVG Export Plug-In . SVG Version: 6.00 Build 0)  -->
<!DOCTYPE svg PUBLIC "-//W3C//DTD SVG 1.1//EN" "http://www.w3.org/Graphics/SVG/1.1/DTD/svg11.dtd">
<svg version="1.1" xmlns="http://www.w3.org/2000/svg" xmlns:xlink="http://www.w3.org/1999/xlink" x="0px" y="0px"
	 viewBox="0 0 1023 1023" enable-background="new 0 0 1023 1023" xml:space="preserve">
<g id="Layer_1">
</g>
<g id="Text">
	<path fill="#FFFFFF" d="M279.6,746.3c-62.5-62.5-96.8-145.6-96.7-234.1c-0.1-72.4,23.1-141.3,65.9-198.2l462.6,463
		c-55.3,41.5-123.9,66.1-198.1,66.1C425,843.2,342,808.8,279.6,746.3z M513.6,181.9c182.3,0,330.6,148.2,330.6,330.4
		c0,72.1-23.2,138.9-62.5,193.3L320.5,243.9c55.8-40.3,122.5-62,192.7-62H513.6z M814.5,211.6C734.1,131.2,627.3,87,513.6,87h-0.5
		c-113.6,0-220.3,44.2-300.6,124.6S87.9,398.8,88,512.3C87.9,626,132.2,732.9,212.5,813.4c80.3,80.4,187.2,124.7,300.8,124.7h0
		c113.8,0,220.7-44.3,301.1-124.7c80.4-80.4,124.7-187.3,124.7-301.1C939.1,398.7,894.9,291.9,814.5,211.6z"/>
</g>
</svg>
