<?xml version="1.0" encoding="utf-8"?>
<!-- Generator: Adobe Illustrator 19.1.0, SVG Export Plug-In . SVG Version: 6.00 Build 0)  -->
<svg version="1.1" id="Ebene_1" xmlns="http://www.w3.org/2000/svg" xmlns:xlink="http://www.w3.org/1999/xlink" x="0px" y="0px"
	 viewBox="0 0 1000 1000" style="enable-background:new 0 0 1000 1000;" xml:space="preserve">
<style type="text/css">
	.st0{fill:#1E4E8A;}
	.st1{fill:#FFD326;}
</style>
<path class="st0" d="M214.9,0h570.1C903.8,0,1000,96.2,1000,214.9v570.1c0,118.7-96.2,214.9-214.9,214.9H214.9
	C96.2,1000,0,903.8,0,785.1V214.9C0,96.2,96.2,0,214.9,0z"/>
<g>
	<path class="st1" d="M867.7,282.6L489.3,689.1c11.3,7.4,18.8,15,28.1,26.2l378.4-406.5C886.4,301.3,877.1,292,867.7,282.6z"/>
	<path class="st1" d="M341.8,409.1c-9.6,12.1-21.7,24.2-33.8,33.8l260.9,256.1c9.6-12.1,21.7-24.2,33.8-33.8L341.8,409.1z"/>
	<path class="st1" d="M370.5,412l-251.2,256c11.8,9.3,23.5,21.1,32.8,32.8l253.6-256C391.8,435.5,380.1,426,370.5,412z"/>
	<path class="st1" d="M603.2,572.3c-2-2-3.9-2-3.9-2c-13.8-7.8-29.5-13.8-47.2-13.8c-11.9,0-25.6,2-35.5,7.8
		c-5.9,2-9.8,5.9-13.8,7.8l0,0c-11.9,7.8-19.7,17.7-27.5,27.5c-9.8,13.8-13.8,31.4-13.8,49.2c0,37.4,23.6,70.8,57.1,84.6
		c11.9,3.9,23.6,7.8,35.5,7.8c19.7,0,37.4-5.9,51.1-15.8c25.6-15.8,41.3-45.2,41.3-76.7c0-19.7-5.9-37.4-15.8-53.1
		C621,586.2,613,578.2,603.2,572.3z"/>
	<path class="st1" d="M422,395.5c-17.3-17.3-38.6-26.9-63.5-26.9c-5.8,0-11.6,0-17.3,2c-11.6,2-23.1,7.7-32.8,13.5
		c-9.6,5.8-17.3,15.5-25.1,25.1c-9.6,15.5-15.5,32.8-15.5,50.1c0,19.3,5.8,36.6,15.5,50.1l0,0c5.8,9.6,15.5,17.3,25.1,25.1
		c2,0,2,2,3.8,2c9.6,5.8,19.3,9.6,28.9,11.6c5.8,2,11.6,2,17.3,2c19.3,0,36.6-5.8,50.1-15.5l0,0c5.8-3.8,9.6-7.7,13.5-11.6
		c5.8-5.8,9.6-11.6,13.5-17.3c7.7-13.5,13.5-30.8,13.5-48.2C449.1,434,437.5,410.9,422,395.5z"/>
	<path class="st1" d="M888.9,265.8c-16.9-10.5-35.8-16.9-54.7-16.9c-6.4,0-12.7,0-18.9,2.2c-12.7,2.2-25.2,8.4-35.8,14.7
		c-27.4,16.9-44.1,48.3-44.1,82.1c0,21.1,6.4,39.9,16.9,56.8c6.4,10.5,14.7,18.9,25.2,25.2c2.2,2.2,4.2,2.2,4.2,2.2
		c8.4,6.4,18.9,10.5,29.4,12.7c6.4,2.2,12.7,2.2,18.9,2.2c21.1,0,39.9-6.4,54.7-16.9c27.4-16.9,44.1-48.3,44.1-82.1
		S916.1,282.7,888.9,265.8z"/>
	<path class="st1" d="M213.5,584.6c0-1.9-1.9-1.9-3.6-1.9c-12.6-7.1-27-12.6-43.2-12.6c-10.9,0-23.4,1.9-32.4,7.1
		c-30.6,12.6-52.2,43.2-52.2,77.3c0,34.2,21.6,64.7,52.2,77.3c10.9,3.6,21.6,7.1,32.4,7.1c18,0,34.2-5.4,46.7-14.4
		c23.4-14.4,37.7-41.3,37.7-70.2c0-18-5.4-34.2-14.4-46.7C231.5,597.2,222.5,590.1,213.5,584.6z"/>
</g>
</svg>
